<mxfile host="65bd71144e">
    <diagram id="C5RBs43oDa-KdzZeNtuy" name="Page-1">
        <mxGraphModel dx="2216" dy="811" grid="1" gridSize="10" guides="1" tooltips="1" connect="1" arrows="1" fold="1" page="1" pageScale="1" pageWidth="827" pageHeight="1169" math="0" shadow="0">
            <root>
                <mxCell id="WIyWlLk6GJQsqaUBKTNV-0"/>
                <mxCell id="WIyWlLk6GJQsqaUBKTNV-1" parent="WIyWlLk6GJQsqaUBKTNV-0"/>
                <mxCell id="VsM4kugWPm3M5QpVEB_Y-27" value="" style="rounded=0;whiteSpace=wrap;html=1;" parent="WIyWlLk6GJQsqaUBKTNV-1" vertex="1">
                    <mxGeometry x="250" y="140" width="280" height="250" as="geometry"/>
                </mxCell>
                <mxCell id="VsM4kugWPm3M5QpVEB_Y-8" style="edgeStyle=none;curved=1;rounded=0;orthogonalLoop=1;jettySize=auto;html=1;entryX=0.5;entryY=0;entryDx=0;entryDy=0;fontSize=12;startSize=8;endSize=8;" parent="WIyWlLk6GJQsqaUBKTNV-1" source="VsM4kugWPm3M5QpVEB_Y-6" target="VsM4kugWPm3M5QpVEB_Y-7" edge="1">
                    <mxGeometry relative="1" as="geometry"/>
                </mxCell>
                <mxCell id="VsM4kugWPm3M5QpVEB_Y-6" value="R1.1, R1.2" style="rhombus;whiteSpace=wrap;html=1;" parent="WIyWlLk6GJQsqaUBKTNV-1" vertex="1">
                    <mxGeometry x="130" y="130" width="80" height="80" as="geometry"/>
                </mxCell>
                <mxCell id="VsM4kugWPm3M5QpVEB_Y-7" value="D1.1" style="rhombus;whiteSpace=wrap;html=1;" parent="WIyWlLk6GJQsqaUBKTNV-1" vertex="1">
                    <mxGeometry x="270" y="200" width="80" height="80" as="geometry"/>
                </mxCell>
                <mxCell id="VsM4kugWPm3M5QpVEB_Y-12" style="edgeStyle=none;curved=1;rounded=0;orthogonalLoop=1;jettySize=auto;html=1;entryX=0.5;entryY=0;entryDx=0;entryDy=0;fontSize=12;startSize=8;endSize=8;" parent="WIyWlLk6GJQsqaUBKTNV-1" source="VsM4kugWPm3M5QpVEB_Y-9" target="VsM4kugWPm3M5QpVEB_Y-11" edge="1">
                    <mxGeometry relative="1" as="geometry"/>
                </mxCell>
                <mxCell id="VsM4kugWPm3M5QpVEB_Y-13" value="L!.1" style="edgeLabel;html=1;align=center;verticalAlign=middle;resizable=0;points=[];fontSize=12;" parent="VsM4kugWPm3M5QpVEB_Y-12" vertex="1" connectable="0">
                    <mxGeometry x="-0.2141" y="-1" relative="1" as="geometry">
                        <mxPoint as="offset"/>
                    </mxGeometry>
                </mxCell>
                <mxCell id="VsM4kugWPm3M5QpVEB_Y-15" style="edgeStyle=none;curved=1;rounded=0;orthogonalLoop=1;jettySize=auto;html=1;entryX=0.5;entryY=0;entryDx=0;entryDy=0;fontSize=12;startSize=8;endSize=8;" parent="WIyWlLk6GJQsqaUBKTNV-1" source="VsM4kugWPm3M5QpVEB_Y-9" target="VsM4kugWPm3M5QpVEB_Y-14" edge="1">
                    <mxGeometry relative="1" as="geometry"/>
                </mxCell>
                <mxCell id="VsM4kugWPm3M5QpVEB_Y-16" value="L1.2" style="edgeLabel;html=1;align=center;verticalAlign=middle;resizable=0;points=[];fontSize=12;" parent="VsM4kugWPm3M5QpVEB_Y-15" vertex="1" connectable="0">
                    <mxGeometry x="0.2415" relative="1" as="geometry">
                        <mxPoint as="offset"/>
                    </mxGeometry>
                </mxCell>
                <mxCell id="VsM4kugWPm3M5QpVEB_Y-9" value="fetching L1.1, L1.2" style="shape=parallelogram;perimeter=parallelogramPerimeter;whiteSpace=wrap;html=1;fixedSize=1;" parent="WIyWlLk6GJQsqaUBKTNV-1" vertex="1">
                    <mxGeometry x="360" y="300" width="140" height="60" as="geometry"/>
                </mxCell>
                <mxCell id="VsM4kugWPm3M5QpVEB_Y-10" style="edgeStyle=none;curved=1;rounded=0;orthogonalLoop=1;jettySize=auto;html=1;exitX=1;exitY=0.5;exitDx=0;exitDy=0;entryX=0.56;entryY=0.057;entryDx=0;entryDy=0;entryPerimeter=0;fontSize=12;startSize=8;endSize=8;" parent="WIyWlLk6GJQsqaUBKTNV-1" source="VsM4kugWPm3M5QpVEB_Y-7" target="VsM4kugWPm3M5QpVEB_Y-9" edge="1">
                    <mxGeometry relative="1" as="geometry"/>
                </mxCell>
                <mxCell id="VsM4kugWPm3M5QpVEB_Y-17" style="edgeStyle=none;curved=1;rounded=0;orthogonalLoop=1;jettySize=auto;html=1;exitX=1;exitY=0.5;exitDx=0;exitDy=0;fontSize=12;startSize=8;endSize=8;" parent="WIyWlLk6GJQsqaUBKTNV-1" source="VsM4kugWPm3M5QpVEB_Y-11" target="VsM4kugWPm3M5QpVEB_Y-18" edge="1">
                    <mxGeometry relative="1" as="geometry">
                        <mxPoint x="640" y="500" as="targetPoint"/>
                    </mxGeometry>
                </mxCell>
                <mxCell id="VsM4kugWPm3M5QpVEB_Y-11" value="R1.23,R1.24" style="rhombus;whiteSpace=wrap;html=1;" parent="WIyWlLk6GJQsqaUBKTNV-1" vertex="1">
                    <mxGeometry x="550" y="370" width="80" height="80" as="geometry"/>
                </mxCell>
                <mxCell id="VsM4kugWPm3M5QpVEB_Y-21" style="edgeStyle=none;curved=1;rounded=0;orthogonalLoop=1;jettySize=auto;html=1;exitX=1;exitY=0.5;exitDx=0;exitDy=0;fontSize=12;startSize=8;endSize=8;" parent="WIyWlLk6GJQsqaUBKTNV-1" source="VsM4kugWPm3M5QpVEB_Y-14" target="VsM4kugWPm3M5QpVEB_Y-20" edge="1">
                    <mxGeometry relative="1" as="geometry"/>
                </mxCell>
                <mxCell id="VsM4kugWPm3M5QpVEB_Y-14" value="R1.56,R1.54" style="rhombus;whiteSpace=wrap;html=1;" parent="WIyWlLk6GJQsqaUBKTNV-1" vertex="1">
                    <mxGeometry x="740" y="330" width="80" height="80" as="geometry"/>
                </mxCell>
                <mxCell id="VsM4kugWPm3M5QpVEB_Y-18" value="fetch and respond" style="rounded=0;whiteSpace=wrap;html=1;" parent="WIyWlLk6GJQsqaUBKTNV-1" vertex="1">
                    <mxGeometry x="640" y="490" width="120" height="60" as="geometry"/>
                </mxCell>
                <mxCell id="VsM4kugWPm3M5QpVEB_Y-20" value="fetch and respond" style="rounded=0;whiteSpace=wrap;html=1;" parent="WIyWlLk6GJQsqaUBKTNV-1" vertex="1">
                    <mxGeometry x="820" y="470" width="120" height="60" as="geometry"/>
                </mxCell>
                <mxCell id="VsM4kugWPm3M5QpVEB_Y-23" style="edgeStyle=none;curved=1;rounded=0;orthogonalLoop=1;jettySize=auto;html=1;fontSize=12;startSize=8;endSize=8;" parent="WIyWlLk6GJQsqaUBKTNV-1" source="VsM4kugWPm3M5QpVEB_Y-22" target="VsM4kugWPm3M5QpVEB_Y-6" edge="1">
                    <mxGeometry relative="1" as="geometry"/>
                </mxCell>
                <mxCell id="VsM4kugWPm3M5QpVEB_Y-22" value="Run all rules" style="rounded=0;whiteSpace=wrap;html=1;" parent="WIyWlLk6GJQsqaUBKTNV-1" vertex="1">
                    <mxGeometry x="-136" y="140" width="120" height="60" as="geometry"/>
                </mxCell>
                <mxCell id="VsM4kugWPm3M5QpVEB_Y-25" value="LLM" style="text;html=1;align=center;verticalAlign=middle;resizable=0;points=[];autosize=1;strokeColor=none;fillColor=none;fontSize=16;" parent="WIyWlLk6GJQsqaUBKTNV-1" vertex="1">
                    <mxGeometry x="-101" y="200" width="50" height="30" as="geometry"/>
                </mxCell>
                <mxCell id="VsM4kugWPm3M5QpVEB_Y-26" value="Local logic" style="text;html=1;align=center;verticalAlign=middle;resizable=0;points=[];autosize=1;strokeColor=none;fillColor=none;fontSize=16;" parent="WIyWlLk6GJQsqaUBKTNV-1" vertex="1">
                    <mxGeometry x="104" y="211" width="100" height="30" as="geometry"/>
                </mxCell>
                <mxCell id="VsM4kugWPm3M5QpVEB_Y-28" value="Data from table" style="text;html=1;align=center;verticalAlign=middle;whiteSpace=wrap;rounded=0;" parent="WIyWlLk6GJQsqaUBKTNV-1" vertex="1">
                    <mxGeometry x="410" y="155" width="60" height="30" as="geometry"/>
                </mxCell>
                <mxCell id="VsM4kugWPm3M5QpVEB_Y-29" value="LLM + SQL" style="text;html=1;align=center;verticalAlign=middle;resizable=0;points=[];autosize=1;strokeColor=none;fillColor=none;fontSize=16;" parent="WIyWlLk6GJQsqaUBKTNV-1" vertex="1">
                    <mxGeometry x="645" y="555" width="100" height="30" as="geometry"/>
                </mxCell>
                <mxCell id="VsM4kugWPm3M5QpVEB_Y-32" value="LLM + SQL" style="text;html=1;align=center;verticalAlign=middle;resizable=0;points=[];autosize=1;strokeColor=none;fillColor=none;fontSize=16;" parent="WIyWlLk6GJQsqaUBKTNV-1" vertex="1">
                    <mxGeometry x="830" y="540" width="100" height="30" as="geometry"/>
                </mxCell>
                <mxCell id="VsM4kugWPm3M5QpVEB_Y-33" value="LLM -&amp;gt; Respond" style="text;html=1;align=center;verticalAlign=middle;resizable=0;points=[];autosize=1;strokeColor=none;fillColor=none;fontSize=16;" parent="WIyWlLk6GJQsqaUBKTNV-1" vertex="1">
                    <mxGeometry x="614" y="581" width="140" height="30" as="geometry"/>
                </mxCell>
                <mxCell id="VsM4kugWPm3M5QpVEB_Y-34" value="LLM -&amp;gt; Respond" style="text;html=1;align=center;verticalAlign=middle;resizable=0;points=[];autosize=1;strokeColor=none;fillColor=none;fontSize=16;" parent="WIyWlLk6GJQsqaUBKTNV-1" vertex="1">
                    <mxGeometry x="804" y="571" width="140" height="30" as="geometry"/>
                </mxCell>
                <mxCell id="VsM4kugWPm3M5QpVEB_Y-35" value="LLM + SQL : Agent to create sql query and fetch data&amp;nbsp;" style="text;html=1;align=center;verticalAlign=middle;resizable=0;points=[];autosize=1;strokeColor=none;fillColor=none;fontSize=16;" parent="WIyWlLk6GJQsqaUBKTNV-1" vertex="1">
                    <mxGeometry x="580" y="680" width="400" height="30" as="geometry"/>
                </mxCell>
                <mxCell id="VsM4kugWPm3M5QpVEB_Y-36" value="SQL" style="text;html=1;align=center;verticalAlign=middle;resizable=0;points=[];autosize=1;strokeColor=none;fillColor=none;fontSize=16;" parent="WIyWlLk6GJQsqaUBKTNV-1" vertex="1">
                    <mxGeometry x="494" y="551" width="60" height="30" as="geometry"/>
                </mxCell>
            </root>
        </mxGraphModel>
    </diagram>
    <diagram id="7cR687H2kGiUM-lv5M7e" name="Page-2">
        <mxGraphModel dx="972" dy="568" grid="1" gridSize="10" guides="1" tooltips="1" connect="1" arrows="1" fold="1" page="1" pageScale="1" pageWidth="850" pageHeight="1100" math="0" shadow="0">
            <root>
                <mxCell id="0"/>
                <mxCell id="1" parent="0"/>
            </root>
        </mxGraphModel>
    </diagram>
</mxfile>